HIERARCHY
ROOT Hips
{
	OFFSET 0.000000 0.000000 0.000000
	CHANNELS 6 Xposition Yposition Zposition Xrotation Yrotation Zrotation
	JOINT LeftUpLeg_virtual
	{
		OFFSET 0.000000 0.000000 0.000000
		CHANNELS 3 Xrotation Yrotation Zrotation
		JOINT LeftUpLeg
		{
			OFFSET 11.394100 -6.187798 -0.413800
			CHANNELS 3 Xrotation Yrotation Zrotation
			JOINT LeftLeg
			{
				OFFSET 0.430247 -32.302673 3.732800
				CHANNELS 3 Xrotation Yrotation Zrotation
				JOINT LeftFoot
				{
					OFFSET -0.430247 -48.264931 -6.423300
					CHANNELS 3 Xrotation Yrotation Zrotation
					JOINT LeftToeBase
					{
						OFFSET 4.230900 -16.068199 23.438400
						CHANNELS 3 Xrotation Yrotation Zrotation
						JOINT LeftToe_End
						{
							OFFSET 4.510700 0.695400 19.974600
							CHANNELS 3 Xrotation Yrotation Zrotation
							End Site
							{
								OFFSET 0 0 0
							}
						}
					}
				}
			}
		}
	}
	JOINT RightUpLeg_virtual
	{
		OFFSET 0.000000 0.000000 0.000000
		CHANNELS 3 Xrotation Yrotation Zrotation
		JOINT RightUpLeg
		{
			OFFSET -11.333700 -6.187798 -0.413800
			CHANNELS 3 Xrotation Yrotation Zrotation
			JOINT RightLeg
			{
				OFFSET -0.430392 -32.302628 3.733000
				CHANNELS 3 Xrotation Yrotation Zrotation
				JOINT RightFoot
				{
					OFFSET 0.430392 -48.264973 -6.423500
					CHANNELS 3 Xrotation Yrotation Zrotation
					JOINT RightToeBase
					{
						OFFSET -4.230900 -16.068199 23.438400
						CHANNELS 3 Xrotation Yrotation Zrotation
						JOINT RightToe_End
						{
							OFFSET -4.510700 0.695400 19.974600
							CHANNELS 3 Xrotation Yrotation Zrotation
							End Site
							{
								OFFSET 0 0 0
							}
						}
					}
				}
			}
		}
	}
	JOINT Spine_virtual
	{
		OFFSET 0.000000 0.000000 0.000000
		CHANNELS 3 Xrotation Yrotation Zrotation
		JOINT Spine
		{
			OFFSET -0.002400 12.777504 0.315300
			CHANNELS 3 Xrotation Yrotation Zrotation
			JOINT Spine1
			{
				OFFSET -0.002067 5.816869 0.032633
				CHANNELS 3 Xrotation Yrotation Zrotation
				JOINT Spine1_split
				{
					OFFSET -0.002067 5.816869 0.032633
					CHANNELS 3 Xrotation Yrotation Zrotation
					JOINT Spine2
					{
						OFFSET -0.002067 5.816869 0.032633
						CHANNELS 3 Xrotation Yrotation Zrotation
						JOINT Neck_virtual
						{
							OFFSET 0.000000 0.000000 0.000000
							CHANNELS 3 Xrotation Yrotation Zrotation
							JOINT Neck
							{
								OFFSET -0.003700 21.199493 -0.826900
								CHANNELS 3 Xrotation Yrotation Zrotation
								JOINT Head
								{
									OFFSET 0.000000 20.442200 4.834800
									CHANNELS 3 Xrotation Yrotation Zrotation
									JOINT HeadTop_End
									{
										OFFSET 0.000000 34.668396 4.968400
										CHANNELS 3 Xrotation Yrotation Zrotation
										End Site
										{
											OFFSET 0 0 0
										}
									}
								}
							}
						}
						JOINT LeftShoulder_virtual
						{
							OFFSET 0.000000 0.000000 0.000000
							CHANNELS 3 Xrotation Yrotation Zrotation
							JOINT LeftShoulder
							{
								OFFSET 3.288150 8.794197 -1.372250
								CHANNELS 3 Xrotation Yrotation Zrotation
								JOINT LeftShoulder_split
								{
									OFFSET 3.288150 8.794197 -1.372250
									CHANNELS 3 Xrotation Yrotation Zrotation
									JOINT LeftArm
									{
										OFFSET 11.953299 -2.279007 -0.146200
										CHANNELS 3 Xrotation Yrotation Zrotation
										JOINT LeftForeArm
										{
											OFFSET 18.448900 0.000000 0.000000
											CHANNELS 3 Xrotation Yrotation Zrotation
											JOINT LeftHand
											{
												OFFSET 29.527798 0.000000 0.000000
												CHANNELS 3 Xrotation Yrotation Zrotation
												End Site
												{
													OFFSET 0 0 0
												}
											}
										}
									}
								}
							}
						}
						JOINT RightShoulder_virtual
						{
							OFFSET 0.000000 0.000000 0.000000
							CHANNELS 3 Xrotation Yrotation Zrotation
							JOINT RightShoulder
							{
								OFFSET -3.249400 8.794197 -1.372250
								CHANNELS 3 Xrotation Yrotation Zrotation
								JOINT RightShoulder_split
								{
									OFFSET -3.249400 8.794197 -1.372250
									CHANNELS 3 Xrotation Yrotation Zrotation
									JOINT RightArm
									{
										OFFSET -11.953299 -2.279007 -0.146200
										CHANNELS 3 Xrotation Yrotation Zrotation
										JOINT RightForeArm
										{
											OFFSET -18.448900 0.000000 0.000000
											CHANNELS 3 Xrotation Yrotation Zrotation
											JOINT RightHand
											{
												OFFSET -29.527802 0.000000 0.000000
												CHANNELS 3 Xrotation Yrotation Zrotation
												End Site
												{
													OFFSET 0 0 0
												}
											}
										}
									}
								}
							}
						}
					}
				}
			}
		}
	}
}
MOTION
Frames: 8
Frame Time: 0.03333333
-1.278371 102.691711 -1.615265 0.000000 0.000000 0.000000 -7.808539 -1.791024 9.817303 -0.606911 13.458889 -7.915896 15.504553 3.930902 -0.563738 -6.672133 -0.873359 2.810401 -2.147720 0.609653 -0.941825 0.000000 0.000000 0.000000 -7.853870 -1.289224 9.660043 -11.491664 -7.284584 -22.028127 21.388261 1.476051 -0.520247 1.818990 -12.441017 7.592968 -6.639119 -0.827984 -2.623278 0.000000 0.000000 0.000000 -8.015260 -4.446859 9.017404 2.298710 -1.227175 -6.760556 4.257724 2.205317 -3.039071 1.942186 -1.454052 1.636898 0.000000 0.000000 0.000000 3.633965 1.851491 -3.133654 0.281003 -3.226196 -6.639407 -1.222435 -11.571927 5.547563 0.000000 0.000000 0.000000 4.587444 1.325950 -3.350802 3.550906 -8.274084 -19.522742 -6.551807 4.963204 -6.167268 18.540151 2.028659 -45.685619 1.233099 -46.864598 -5.386738 0.000000 0.000000 0.000000 2.880385 2.059529 -1.924713 6.278994 6.187305 6.317220 -2.799184 4.262940 0.535348 0.550189 -9.013716 67.851946 18.496921 30.558703 0.837114 0.000000 0.000000 0.000000 
-1.790483 103.240097 -0.863853 0.000000 0.000000 0.000000 -7.696764 -1.324115 9.611280 -0.880732 12.322836 -7.548324 15.761838 4.187481 -0.388567 -5.947716 -0.326225 3.278982 -2.426589 0.630750 -1.156123 0.000000 0.000000 0.000000 -7.731079 -0.661136 9.508662 -10.169368 -7.713453 -21.542212 20.621871 1.255925 -0.782465 1.964221 -11.644934 8.598271 -8.045243 -0.821154 -2.640882 0.000000 0.000000 0.000000 -7.957930 -3.825301 8.484440 2.260186 -1.180535 -6.788361 5.217184 2.259857 -2.798897 2.175844 -0.739102 1.692987 0.000000 0.000000 0.000000 4.326337 1.976857 -2.981727 -0.804000 -3.213154 -5.976549 -2.863657 -9.980107 5.067759 0.000000 0.000000 0.000000 5.494516 1.387695 -3.102467 3.590721 -9.562129 -17.873027 -4.296701 2.006595 -3.965552 19.511265 -0.893172 -46.794019 1.450155 -47.475969 -5.009914 0.000000 0.000000 0.000000 3.597284 2.158752 -1.790288 5.895750 6.400357 6.448479 -2.590513 5.324627 0.347977 1.665016 -6.837777 67.028362 19.020945 33.929323 -0.112871 0.000000 0.000000 0.000000 
-2.390419 104.058708 -0.433029 0.000000 0.000000 0.000000 -7.847156 -0.875139 9.083562 -1.064872 11.292736 -7.092994 15.904919 4.132900 -0.216134 -4.892261 0.432206 3.700436 -3.070301 0.644335 -1.100327 0.000000 0.000000 0.000000 -7.574096 -0.158114 9.036784 -8.523170 -8.183026 -20.822574 18.882640 0.699533 -1.134182 2.598117 -10.617394 9.033220 -8.108875 -0.739154 -2.720358 0.000000 0.000000 0.000000 -7.919693 -3.194252 7.628015 2.486138 -0.840257 -6.620578 6.721418 2.326298 -2.366110 1.896107 0.113881 1.431096 0.000000 0.000000 0.000000 5.921670 2.162088 -2.669577 -3.457703 -2.854854 -5.943921 -5.191034 -8.180611 4.096670 0.000000 0.000000 0.000000 7.084898 1.666359 -2.668718 3.582485 -11.837514 -15.078413 -2.151367 0.139008 -2.503550 24.230024 -6.749002 -44.305269 -1.858953 -52.815821 -5.832789 0.000000 0.000000 0.000000 5.211525 2.307487 -1.564407 5.474555 6.693314 6.290735 -2.331707 5.885038 0.272271 3.842798 -1.540954 64.906489 20.622144 37.194796 -3.183882 0.000000 0.000000 0.000000 
-2.940325 104.804390 -0.309231 0.000000 0.000000 0.000000 -8.199784 -0.613521 8.358640 -1.272116 10.787548 -6.654850 16.073016 3.772630 -0.142099 -3.606243 1.308553 3.962825 -3.957018 0.653381 -0.859996 0.000000 0.000000 0.000000 -7.383399 0.190395 8.370070 -7.670551 -8.390182 -20.143852 17.628197 0.042979 -1.428443 4.436321 -9.391139 9.336256 -7.721459 -0.629518 -2.965005 0.000000 0.000000 0.000000 -8.218738 -2.635111 6.693348 3.035708 -0.346702 -6.360950 8.532331 2.306044 -1.779047 1.223551 0.010111 1.399963 0.000000 0.000000 0.000000 8.174253 2.260921 -2.222643 -7.116455 -1.956557 -6.446732 -8.067498 -6.239836 2.664842 0.000000 0.000000 0.000000 9.011481 1.993691 -2.112436 3.625072 -14.696960 -11.498872 -0.936890 0.030422 -3.119703 31.379105 -12.632364 -38.451008 -9.251044 -62.106002 -8.648304 0.000000 0.000000 0.000000 7.425252 2.383407 -1.267800 4.936310 7.193192 6.054248 -2.047968 5.622947 0.159918 6.691180 4.875439 61.528086 23.259999 40.191784 -8.239296 0.000000 0.000000 0.000000 
-3.495360 105.355492 -0.318272 0.000000 0.000000 0.000000 -8.696569 -0.402315 7.634978 -1.669108 10.968774 -6.258455 16.355013 3.144165 -0.227794 -2.218980 2.157749 4.088767 -5.000406 0.669360 -0.519731 0.000000 0.000000 0.000000 -7.177381 0.574188 7.644815 -8.466039 -8.008930 -19.699927 18.568429 -0.301460 -1.582239 7.643318 -7.894010 10.210427 -8.203644 -0.491365 -3.388814 0.000000 0.000000 0.000000 -8.790428 -2.008575 5.888207 3.870904 0.072979 -6.116027 10.412422 2.153220 -1.140346 0.035091 -0.025678 1.157974 0.000000 0.000000 0.000000 10.708938 2.152017 -1.707150 -11.025964 -0.519715 -7.250170 -11.521805 -4.257802 0.833228 0.000000 0.000000 0.000000 10.998389 2.192445 -1.546421 3.729321 -17.808724 -7.947743 0.005913 0.507594 -5.097800 39.652448 -16.409676 -30.614359 -21.516790 -72.916859 -15.196544 0.000000 0.000000 0.000000 9.851632 2.292379 -0.926244 4.314806 8.178272 6.202977 -2.059285 4.987791 -0.315938 9.990244 10.677398 57.069448 26.791231 43.556837 -15.182262 0.000000 0.000000 0.000000 
-4.010363 105.739899 -0.730301 0.000000 0.000000 0.000000 -9.081836 -0.173137 7.062110 -2.420917 11.682916 -5.873927 16.936069 2.378769 -0.444712 -0.709854 2.903183 4.235928 -5.902797 0.688207 -0.281910 0.000000 0.000000 0.000000 -7.010580 1.175447 6.995768 -11.204996 -6.646482 -19.403751 22.512939 -0.132808 -1.721381 10.953577 -6.255372 11.278603 -9.238983 -0.370908 -3.814630 0.000000 0.000000 0.000000 -9.303054 -1.362005 5.379004 4.858253 0.293482 -5.992155 12.162451 1.843628 -0.577232 -0.907556 -0.321236 1.001182 0.000000 0.000000 0.000000 13.089890 1.891914 -1.192779 -14.408357 1.286682 -8.175185 -15.321883 -2.372641 -1.137332 0.000000 0.000000 0.000000 12.768749 2.230566 -1.038962 3.776009 -20.945634 -5.295260 0.526795 0.559147 -7.794433 47.620332 -17.383825 -22.866640 -44.901756 -82.722497 -32.758595 0.000000 0.000000 0.000000 12.022550 2.092139 -0.583805 3.604382 9.815414 7.140825 -2.102114 4.503864 -1.292528 13.038193 14.001510 51.818306 31.377220 48.025929 -24.049502 0.000000 0.000000 0.000000 
-4.510797 105.970810 -1.618427 0.000000 0.000000 0.000000 -9.159261 0.092048 6.652104 -3.672042 12.539416 -5.304032 17.754648 1.568913 -0.723315 0.860590 3.555150 4.472634 -6.409569 0.693734 -0.225766 0.000000 0.000000 0.000000 -6.861242 1.841306 6.419483 -15.493292 -4.449895 -19.046997 29.288869 0.263543 -1.884099 12.864122 -4.838280 11.467598 -8.920981 -0.363911 -3.885922 0.000000 0.000000 0.000000 -9.394273 -0.638333 5.053583 5.866945 0.312639 -5.944533 13.659688 1.485889 -0.187457 -0.780434 -0.271171 1.003675 0.000000 0.000000 0.000000 14.971153 1.591459 -0.771621 -16.395172 3.098874 -9.098249 -19.035920 -0.559496 -2.996536 0.000000 0.000000 0.000000 14.165199 2.121892 -0.721014 3.562353 -23.565515 -4.413482 0.514350 -0.610800 -9.595841 53.324236 -17.260556 -16.232891 -156.295820 -86.707824 -139.174161 0.000000 0.000000 0.000000 13.734459 1.865844 -0.334688 2.828476 11.899941 8.870497 -1.567661 4.568094 -2.594936 14.888013 13.952101 46.465722 37.927303 54.222392 -35.447982 0.000000 0.000000 0.000000 
-5.092794 106.063293 -2.574245 0.000000 0.000000 0.000000 -8.901666 0.534813 6.292316 -5.392910 13.095289 -4.437061 18.635536 0.818513 -0.984008 2.131579 4.074462 4.861621 -6.232111 0.693260 -0.491816 0.000000 0.000000 0.000000 -6.743364 2.618621 5.944034 -20.766854 -1.884613 -18.336983 37.610201 0.392301 -2.059141 12.819520 -3.954567 10.121554 -6.533328 -0.410574 -3.427214 0.000000 0.000000 0.000000 -8.640205 0.215110 4.784252 6.732112 0.167724 -5.841422 14.816922 1.263634 -0.045664 -0.285766 0.510489 1.051789 0.000000 0.000000 0.000000 16.207574 1.437218 -0.546202 -16.323780 4.494229 -9.958596 -22.011535 0.989161 -4.454936 0.000000 0.000000 0.000000 15.224944 2.033282 -0.619562 2.854845 -25.245839 -5.773209 -0.382682 -2.269098 -9.765898 55.894836 -16.768657 -10.453027 155.183920 -81.401061 176.073329 0.000000 0.000000 0.000000 14.893883 1.782265 -0.242226 2.093217 14.177892 11.244907 -0.660497 4.538166 -3.813875 15.013908 10.939332 41.248131 49.326243 62.098427 -51.780723 0.000000 0.000000 0.000000 
